<?xml version="1.0" encoding="utf-8"?>
<!-- Generator: Adobe Illustrator 22.0.0, SVG Export Plug-In . SVG Version: 6.00 Build 0)  -->
<svg version="1.1" id="Слой_1" xmlns="http://www.w3.org/2000/svg" xmlns:xlink="http://www.w3.org/1999/xlink" x="0px" y="0px"
	 viewBox="0 0 720 720" style="enable-background:new 0 0 720 720;" xml:space="preserve">
<path d="M148.1,430.2c4.6-2,12-16,18.5-24.8c6.5-8.8,11.3-14.7,11.3-14.7l24.3-12v-6.7l39.4-4.8l1.2-11.7h1.6l2.5-16.4h2.3v-9.3
	l0.9-6.9l1.4,5l6.6-33.2l4.7,35.3l1-2.4l1.6,6h0.9l8.6-28.2l2.2,29.2l0.8-5.9l0.8,6.8v19h2.3v-10.3l5.9-20.8l2.6,21.8h7.6l2.3-4
	l2,2.6h2.3l0.9-14l2.9-7.4l1.4,2.2v-12.5l3.4-10.5l1.4,5.4l2.2-8.5l7.4-35.2l5.2,35.3l0.6,9.2l0.8-1.5l3,7.4V328l3.6,7.1l4.3-8
	l3.9,10.5v7.9h6.9v-6.9l7.3-14H370v-4.7l1.3-2.7l1.3,3.8v6.2l4.3,6.9l4.5,5.2l1.2-5.6l1.4,6h1.8l3.2-8.1l5.3,12.3h11.9l2.8-5.1
	l2.6,5.3h2.6v-5.2l1.5-4.7l2,4.6v5l3.3-0.2v-4.6l2.3-1.5l-2.3-55.1l18.1-63.7l22.7,64.3v17.4l20.7,4.2v-9.1l4.6-14.6l4.6,15.2v10.3
	l19.3,3.6l1.4-7.8l2.7,9.5l3.7,16.2h0.7l1.1-3.8l1.7,3.8v4.7h1.6V328h0.7l0.8-3.8l0.9,3.8h1.2v11.2h1.6v5h1.9v0.9h-1.9l2.3,23.3h1.8
	v3.6c3.9,3.3,6.5,12.5,6.5,12.5s0.8,1.4,2.8,9.4c2,7.9,7.2,13.4,11.8,22.6c4.6,9.3,17.6,13.9,17.6,13.9H148.1z M148.1,430.6
	C148.1,430.6,148.1,430.6,148.1,430.6h423.7c0.2,0,0.3-0.1,0.4-0.3c0-0.2-0.1-0.4-0.3-0.4c-0.1,0-12.9-4.7-17.4-13.7
	c-1.8-3.6-3.6-6.5-5.4-9.3c-2.8-4.5-5.2-8.4-6.4-13.2c-1.8-7.2-2.6-9.1-2.8-9.4c-0.2-0.7-2.7-9.1-6.5-12.5v-3.4
	c0-0.2-0.2-0.4-0.4-0.4h-1.4l-2.2-22.5h1.4c0.2,0,0.4-0.2,0.4-0.4v-0.9c0-0.2-0.2-0.4-0.4-0.4h-1.5v-4.6c0-0.2-0.2-0.4-0.4-0.4h-1.2
	V328c0-0.2-0.2-0.4-0.4-0.4h-0.9l-0.9-3.5c0-0.2-0.2-0.3-0.4-0.3c-0.2,0-0.3,0.1-0.4,0.3l-0.7,3.5H524c-0.2,0-0.4,0.2-0.4,0.4v4.3
	h-0.8V328c0-0.1,0-0.1,0-0.2L521,324c-0.1-0.1-0.2-0.2-0.4-0.2c-0.2,0-0.3,0.1-0.3,0.3l-1,3.5h-0.1l-3.6-15.9c0,0,0,0,0,0l-2.7-9.5
	c-0.1-0.2-0.2-0.3-0.4-0.3c-0.2,0-0.3,0.1-0.4,0.3l-1.3,7.4l-18.6-3.5v-10c0,0,0-0.1,0-0.1l-4.6-15.2c0-0.2-0.2-0.3-0.4-0.3h0
	c-0.2,0-0.3,0.1-0.4,0.3l-4.6,14.6c0,0,0,0.1,0,0.1v8.6l-19.9-4.1v-17.1c0,0,0-0.1,0-0.1l-22.7-64.3c-0.1-0.2-0.2-0.3-0.4-0.3
	c0,0,0,0,0,0c-0.2,0-0.3,0.1-0.4,0.3l-18.1,63.7c0,0,0,0.1,0,0.1l2.2,54.9l-2.1,1.4c-0.1,0.1-0.2,0.2-0.2,0.3v4.3l-2.5,0.1v-4.6
	c0-0.1,0-0.1,0-0.2l-2-4.6c-0.1-0.1-0.2-0.2-0.4-0.2c-0.2,0-0.3,0.1-0.3,0.3l-1.5,4.7c0,0,0,0.1,0,0.1v4.9h-2l-2.5-5.1
	c-0.1-0.1-0.2-0.2-0.3-0.2c0,0,0,0,0,0c-0.1,0-0.3,0.1-0.3,0.2l-2.7,4.9h-11.4l-5.2-12c-0.1-0.1-0.2-0.2-0.4-0.2c0,0,0,0,0,0
	c-0.2,0-0.3,0.1-0.4,0.2l-3.1,7.9h-1.2l-1.3-5.7c0-0.2-0.2-0.3-0.4-0.3c0,0,0,0,0,0c-0.2,0-0.3,0.1-0.4,0.3l-1.1,4.8l-4-4.6
	l-4.2-6.8v-6.1c0,0,0-0.1,0-0.1l-1.3-3.8c-0.1-0.1-0.2-0.2-0.3-0.3c-0.2,0-0.3,0.1-0.4,0.2l-1.3,2.7c0,0.1,0,0.1,0,0.2v4.3h-10.5
	c-0.1,0-0.3,0.1-0.3,0.2l-7.3,14c0,0.1,0,0.1,0,0.2v6.6h-6.2v-7.5c0,0,0-0.1,0-0.1l-3.9-10.5c-0.1-0.1-0.2-0.2-0.3-0.3
	c-0.2,0-0.3,0.1-0.4,0.2l-4,7.4l-3.2-6.3v-14.4c0-0.1,0-0.1,0-0.1l-3-7.4c-0.1-0.1-0.2-0.2-0.3-0.2c-0.1,0-0.3,0.1-0.4,0.2l-0.2,0.4
	l-0.5-7.8c0,0,0,0,0,0l-5.2-35.3c0-0.2-0.2-0.3-0.4-0.3c-0.2,0-0.3,0.1-0.4,0.3l-7.4,35.2l-1.8,7l-1-3.9c0-0.2-0.2-0.3-0.4-0.3
	c0,0,0,0,0,0c-0.2,0-0.3,0.1-0.4,0.3l-3.4,10.5c0,0,0,0.1,0,0.1v11.2l-0.7-1.1c-0.1-0.1-0.2-0.2-0.4-0.2c-0.1,0-0.3,0.1-0.3,0.2
	l-2.9,7.4c0,0,0,0.1,0,0.1l-0.9,13.7h-1.8l-1.9-2.5c-0.1-0.1-0.2-0.2-0.3-0.1c-0.1,0-0.2,0.1-0.3,0.2l-2.2,3.8h-7l-2.6-21.4
	c0-0.2-0.2-0.3-0.4-0.3c-0.2,0-0.4,0.1-0.4,0.3l-5.9,20.8c0,0,0,0.1,0,0.1v10h-1.5v-18.6c0,0,0,0,0,0l-0.8-6.8
	c0-0.2-0.2-0.3-0.4-0.3c0,0,0,0,0,0c-0.2,0-0.4,0.1-0.4,0.3l-0.3,2.1l-1.9-25.4c0-0.2-0.2-0.3-0.3-0.4c-0.2,0-0.4,0.1-0.4,0.3
	l-8.6,28h-0.3l-1.5-5.7c0-0.2-0.2-0.3-0.4-0.3c-0.2,0-0.3,0.1-0.4,0.2l-0.4,1l-4.5-33.8c0-0.2-0.2-0.3-0.4-0.3
	c-0.2,0-0.4,0.1-0.4,0.3l-6.2,31.6l-1-3.4c-0.1-0.2-0.2-0.3-0.4-0.3c-0.2,0-0.3,0.2-0.4,0.3l-0.9,6.9c0,0,0,0,0,0.1v8.9H247
	c-0.2,0-0.4,0.1-0.4,0.3l-2.5,16.1h-1.3c-0.2,0-0.4,0.1-0.4,0.3l-1.1,11.3l-39.1,4.7c-0.2,0-0.3,0.2-0.3,0.4v6.5l-24.1,11.9
	c0,0-0.1,0.1-0.1,0.1c0,0.1-4.9,6-11.3,14.7c-2.1,2.9-4.4,6.4-6.6,9.8c-4.3,6.7-8.7,13.6-11.7,14.9c-0.2,0.1-0.3,0.2-0.3,0.4
	C147.8,430.5,147.9,430.6,148.1,430.6z M569.9,429.9H149.5c3-2.3,6.9-8.2,10.9-14.4c2.2-3.4,4.4-6.9,6.6-9.8
	c6-8.2,10.7-13.9,11.3-14.6l24.2-11.9c0.1-0.1,0.2-0.2,0.2-0.3v-6.4l39-4.7c0.2,0,0.3-0.2,0.3-0.3l1.1-11.3h1.3
	c0.2,0,0.4-0.1,0.4-0.3l2.5-16.1h2c0.2,0,0.4-0.2,0.4-0.4v-9.2l0.7-5.1l0.9,3.2c0,0.2,0.2,0.3,0.4,0.3c0.2,0,0.3-0.1,0.4-0.3
	l6.1-30.9l4.4,33c0,0.2,0.2,0.3,0.3,0.3c0.2,0,0.3-0.1,0.4-0.2l0.5-1.3l1.3,4.9c0,0.2,0.2,0.3,0.4,0.3h0.9c0.2,0,0.3-0.1,0.4-0.3
	l8-26.3l2,27.1c0,0.2,0.2,0.4,0.4,0.4c0.2,0,0.4-0.1,0.4-0.3l0.4-2.7l0.4,3.6v19c0,0.2,0.2,0.4,0.4,0.4h2.3c0.2,0,0.4-0.2,0.4-0.4
	v-10.3l5.3-18.9l2.4,19.8c0,0.2,0.2,0.3,0.4,0.3h7.6c0.1,0,0.3-0.1,0.3-0.2l2-3.5l1.7,2.2c0.1,0.1,0.2,0.2,0.3,0.2h2.3
	c0.2,0,0.4-0.2,0.4-0.4l0.9-14l2.6-6.6l1,1.6c0.1,0.1,0.3,0.2,0.4,0.2c0.2,0,0.3-0.2,0.3-0.4v-12.5l3-9.2l1.1,4.1
	c0,0.2,0.2,0.3,0.4,0.3c0,0,0,0,0,0c0.2,0,0.3-0.1,0.4-0.3l2.2-8.5c0,0,0,0,0,0l7-33.1l4.9,33.2l0.6,9.1c0,0.2,0.1,0.3,0.3,0.4
	c0.2,0,0.3,0,0.4-0.2l0.4-0.8l2.7,6.6V328c0,0.1,0,0.1,0,0.2l3.5,7.1c0.1,0.1,0.2,0.2,0.3,0.2c0.1,0,0.3-0.1,0.3-0.2l3.9-7.3
	l3.5,9.6v7.8c0,0.2,0.2,0.4,0.4,0.4h6.9c0.2,0,0.4-0.2,0.4-0.4v-6.9l7.2-13.7H370c0.2,0,0.4-0.2,0.4-0.4v-4.6l0.9-1.8l1,2.9v6.1
	c0,0.1,0,0.1,0.1,0.2l4.3,6.9c0,0,0,0,0,0l4.5,5.2c0.1,0.1,0.2,0.2,0.4,0.1c0.1,0,0.3-0.1,0.3-0.3l0.9-3.9l1,4.4
	c0,0.2,0.2,0.3,0.4,0.3h1.8c0.2,0,0.3-0.1,0.4-0.2l2.9-7.2l5,11.4c0.1,0.1,0.2,0.2,0.4,0.2h11.9c0.1,0,0.3-0.1,0.3-0.2l2.4-4.4
	l2.3,4.7c0.1,0.1,0.2,0.2,0.3,0.2h2.6c0.2,0,0.4-0.2,0.4-0.4v-5.2l1.1-3.7l1.6,3.5v4.9c0,0.1,0,0.2,0.1,0.3c0.1,0.1,0.2,0.1,0.3,0.1
	l3.3-0.2c0.2,0,0.4-0.2,0.4-0.4v-4.4l2.1-1.4c0.1-0.1,0.2-0.2,0.2-0.3l-2.2-55l17.7-62.4l22.3,63.1v17.4c0,0.2,0.1,0.3,0.3,0.4
	l20.7,4.2c0.1,0,0.2,0,0.3-0.1c0.1-0.1,0.1-0.2,0.1-0.3v-9l4.2-13.4l4.3,14v10.2c0,0.2,0.1,0.3,0.3,0.4l19.3,3.6
	c0.1,0,0.2,0,0.3-0.1c0.1-0.1,0.1-0.1,0.2-0.3l1.1-6.1l2.3,7.9l3.7,16.2c0,0.2,0.2,0.3,0.4,0.3h0.7c0.2,0,0.3-0.1,0.4-0.3l0.8-2.8
	l1.2,2.8v4.6c0,0.2,0.2,0.4,0.4,0.4h1.6c0.2,0,0.4-0.2,0.4-0.4v-4.3h0.3c0.2,0,0.3-0.1,0.4-0.3l0.4-2.1l0.5,2.1
	c0,0.2,0.2,0.3,0.4,0.3h0.8v10.8c0,0.2,0.2,0.4,0.4,0.4h1.2v4.6c0,0.2,0.2,0.4,0.4,0.4h1.5v0.2h-1.5c-0.1,0-0.2,0-0.3,0.1
	c-0.1,0.1-0.1,0.2-0.1,0.3l2.3,23.3c0,0.2,0.2,0.3,0.4,0.3h1.4v3.2c0,0.1,0.1,0.2,0.1,0.3c3.8,3.2,6.3,12.2,6.4,12.3
	c0,0,0,0.1,0,0.1c0,0.1,0.8,1.6,2.7,9.3c1.2,5,3.7,8.9,6.5,13.4c1.8,2.8,3.6,5.7,5.3,9.3c1.3,2.7,4.3,6.7,10.7,10.6
	C566.7,428.4,568.6,429.3,569.9,429.9z M487.2,268.3v17.4 M487.2,285.9c0.1,0,0.2-0.1,0.2-0.2v-17.4c0-0.1-0.1-0.2-0.2-0.2
	s-0.2,0.1-0.2,0.2v17.4C486.9,285.8,487,285.9,487.2,285.9z M409.1,326v17.4 M409.1,343.7c0.1,0,0.2-0.1,0.2-0.2V326
	c0-0.1-0.1-0.2-0.2-0.2c-0.1,0-0.2,0.1-0.2,0.2v17.4C408.9,343.6,409,343.7,409.1,343.7z M389.1,319.9v17.4 M389.1,337.5
	c0.1,0,0.2-0.1,0.2-0.2v-17.4c0-0.1-0.1-0.2-0.2-0.2s-0.2,0.1-0.2,0.2v17.4C388.9,337.4,389,337.5,389.1,337.5z M439.2,206.3v17.4
	 M439.2,223.9c0.1,0,0.2-0.1,0.2-0.2v-17.4c0-0.1-0.1-0.2-0.2-0.2c-0.1,0-0.2,0.1-0.2,0.2v17.4C439,223.8,439.1,223.9,439.2,223.9z
	 M258.2,285.4v17.4 M258.2,303c0.1,0,0.2-0.1,0.2-0.2v-17.4c0-0.1-0.1-0.2-0.2-0.2c-0.1,0-0.2,0.1-0.2,0.2v17.4
	C258,302.9,258.1,303,258.2,303z M323.3,250.9v17.4 M323.3,268.5c0.1,0,0.2-0.1,0.2-0.2v-17.4c0-0.1-0.1-0.2-0.2-0.2
	c-0.1,0-0.2,0.1-0.2,0.2v17.4C323.1,268.4,323.2,268.5,323.3,268.5z"/>
</svg>
